<svg width="200" height="200" viewBox="0 0 200 200" xmlns="http://www.w3.org/2000/svg">
  <!-- Background -->
  <rect width="200" height="200" fill="white"/>
  
  <!-- Position markers (3 corners) -->
  <!-- Top-left -->
  <rect x="10" y="10" width="50" height="50" fill="none" stroke="black" stroke-width="2"/>
  <rect x="15" y="15" width="40" height="40" fill="black"/>
  <rect x="20" y="20" width="30" height="30" fill="white"/>
  <rect x="25" y="25" width="20" height="20" fill="black"/>
  
  <!-- Top-right -->
  <rect x="140" y="10" width="50" height="50" fill="none" stroke="black" stroke-width="2"/>
  <rect x="145" y="15" width="40" height="40" fill="black"/>
  <rect x="150" y="20" width="30" height="30" fill="white"/>
  <rect x="155" y="25" width="20" height="20" fill="black"/>
  
  <!-- Bottom-left -->
  <rect x="10" y="140" width="50" height="50" fill="none" stroke="black" stroke-width="2"/>
  <rect x="15" y="145" width="40" height="40" fill="black"/>
  <rect x="20" y="150" width="30" height="30" fill="white"/>
  <rect x="25" y="155" width="20" height="20" fill="black"/>
  
  <!-- Timing patterns -->
  <line x1="70" y1="18" x2="130" y2="18" stroke="black" stroke-width="2"/>
  <line x1="18" y1="70" x2="18" y2="130" stroke="black" stroke-width="2"/>
  
  <!-- Data pattern -->
  <rect x="70" y="60" width="6" height="6" fill="black"/>
  <rect x="78" y="60" width="6" height="6" fill="black"/>
  <rect x="86" y="60" width="6" height="6" fill="white"/>
  <rect x="94" y="60" width="6" height="6" fill="black"/>
  <rect x="102" y="60" width="6" height="6" fill="black"/>
  <rect x="110" y="60" width="6" height="6" fill="white"/>
  <rect x="118" y="60" width="6" height="6" fill="black"/>
  <rect x="126" y="60" width="6" height="6" fill="black"/>
  
  <rect x="70" y="68" width="6" height="6" fill="white"/>
  <rect x="78" y="68" width="6" height="6" fill="black"/>
  <rect x="86" y="68" width="6" height="6" fill="black"/>
  <rect x="94" y="68" width="6" height="6" fill="white"/>
  <rect x="102" y="68" width="6" height="6" fill="black"/>
  <rect x="110" y="68" width="6" height="6" fill="black"/>
  <rect x="118" y="68" width="6" height="6" fill="white"/>
  <rect x="126" y="68" width="6" height="6" fill="black"/>
  
  <rect x="70" y="76" width="6" height="6" fill="black"/>
  <rect x="78" y="76" width="6" height="6" fill="white"/>
  <rect x="86" y="76" width="6" height="6" fill="black"/>
  <rect x="94" y="76" width="6" height="6" fill="black"/>
  <rect x="102" y="76" width="6" height="6" fill="white"/>
  <rect x="110" y="76" width="6" height="6" fill="black"/>
  <rect x="118" y="76" width="6" height="6" fill="black"/>
  <rect x="126" y="76" width="6" height="6" fill="white"/>
  
  <rect x="70" y="84" width="6" height="6" fill="black"/>
  <rect x="78" y="84" width="6" height="6" fill="black"/>
  <rect x="86" y="84" width="6" height="6" fill="white"/>
  <rect x="94" y="84" width="6" height="6" fill="black"/>
  <rect x="102" y="84" width="6" height="6" fill="black"/>
  <rect x="110" y="84" width="6" height="6" fill="white"/>
  <rect x="118" y="84" width="6" height="6" fill="black"/>
  <rect x="126" y="84" width="6" height="6" fill="black"/>
  
  <!-- Random data pattern filled -->
  <rect x="70" y="100" width="6" height="6" fill="black"/>
  <rect x="78" y="100" width="6" height="6" fill="white"/>
  <rect x="86" y="100" width="6" height="6" fill="black"/>
  <rect x="94" y="100" width="6" height="6" fill="black"/>
  <rect x="102" y="100" width="6" height="6" fill="white"/>
  <rect x="110" y="100" width="6" height="6" fill="black"/>
  <rect x="118" y="100" width="6" height="6" fill="black"/>
  <rect x="126" y="100" width="6" height="6" fill="white"/>
  
  <rect x="60" y="100" width="6" height="6" fill="white"/>
  <rect x="52" y="100" width="6" height="6" fill="black"/>
  <rect x="60" y="92" width="6" height="6" fill="black"/>
  <rect x="60" y="108" width="6" height="6" fill="black"/>
  
  <rect x="70" y="140" width="6" height="6" fill="black"/>
  <rect x="78" y="140" width="6" height="6" fill="black"/>
  <rect x="86" y="140" width="6" height="6" fill="white"/>
  <rect x="94" y="140" width="6" height="6" fill="black"/>
  <rect x="102" y="140" width="6" height="6" fill="black"/>
  <rect x="110" y="140" width="6" height="6" fill="white"/>
  
  <!-- More scattered data -->
  <rect x="140" y="100" width="6" height="6" fill="black"/>
  <rect x="148" y="100" width="6" height="6" fill="white"/>
  <rect x="156" y="100" width="6" height="6" fill="black"/>
  <rect x="164" y="100" width="6" height="6" fill="black"/>
  <rect x="172" y="100" width="6" height="6" fill="white"/>
  <rect x="180" y="100" width="6" height="6" fill="black"/>
  
  <rect x="140" y="108" width="6" height="6" fill="white"/>
  <rect x="148" y="108" width="6" height="6" fill="black"/>
  <rect x="156" y="108" width="6" height="6" fill="black"/>
  <rect x="164" y="108" width="6" height="6" fill="white"/>
  <rect x="172" y="108" width="6" height="6" fill="black"/>
  <rect x="180" y="108" width="6" height="6" fill="black"/>
  
  <rect x="140" y="116" width="6" height="6" fill="black"/>
  <rect x="148" y="116" width="6" height="6" fill="white"/>
  <rect x="156" y="116" width="6" height="6" fill="black"/>
  <rect x="164" y="116" width="6" height="6" fill="black"/>
  <rect x="172" y="116" width="6" height="6" fill="white"/>
  <rect x="180" y="116" width="6" height="6" fill="black"/>
  
  <rect x="140" y="124" width="6" height="6" fill="black"/>
  <rect x="148" y="124" width="6" height="6" fill="black"/>
  <rect x="156" y="124" width="6" height="6" fill="white"/>
  <rect x="164" y="124" width="6" height="6" fill="black"/>
  <rect x="172" y="124" width="6" height="6" fill="black"/>
  <rect x="180" y="124" width="6" height="6" fill="white"/>
</svg>
